<svg xmlns="http://www.w3.org/2000/svg" width="60" height="47.142" viewBox="0 0 60 47.142"><defs><style>.a{fill:#fff;}</style></defs><g transform="translate(0 -6.429)"><path class="a" d="M5.759,20.96q1.138.8,6.864,4.771t8.772,6.11q.335.235,1.423,1.021t1.808,1.273q.72.485,1.741,1.088a10.1,10.1,0,0,0,1.925.9,5.3,5.3,0,0,0,1.674.3h.067a5.31,5.31,0,0,0,1.674-.3,10.112,10.112,0,0,0,1.925-.9q1.021-.6,1.741-1.088t1.808-1.273q1.088-.788,1.423-1.021,3.08-2.142,15.669-10.882a15.906,15.906,0,0,0,4.084-4.118A8.842,8.842,0,0,0,60,11.786a5.4,5.4,0,0,0-5.357-5.357H5.357A4.782,4.782,0,0,0,1.389,8.17,6.758,6.758,0,0,0,0,12.522a7.821,7.821,0,0,0,1.842,4.571A16.619,16.619,0,0,0,5.759,20.96Z"/><path class="a" d="M56.651,24.542Q45.67,31.975,39.978,36.094q-1.908,1.406-3.1,2.193a19.112,19.112,0,0,1-3.164,1.607,9.634,9.634,0,0,1-3.682.82h-.068a9.638,9.638,0,0,1-3.683-.82,19.122,19.122,0,0,1-3.164-1.607q-1.188-.786-3.1-2.193Q15.5,32.779,3.382,24.542A17.735,17.735,0,0,1,0,21.629V48.213A5.157,5.157,0,0,0,1.574,52a5.158,5.158,0,0,0,3.784,1.574H54.643A5.373,5.373,0,0,0,60,48.213V21.629A18.464,18.464,0,0,1,56.651,24.542Z"/></g></svg>