<svg xmlns="http://www.w3.org/2000/svg" xmlns:xlink="http://www.w3.org/1999/xlink" width="2807.317" height="1635.746" viewBox="0 0 2807.317 1635.746"><defs><style>.a{fill:url(#a);}.b{fill:#03045e;}</style><linearGradient id="a" x1="0.194" y1="1.132" x2="-0.695" y2="0.583" gradientUnits="objectBoundingBox"><stop offset="0" stop-color="#caf0f8"/><stop offset="0.201" stop-color="#c0e7eb"/><stop offset="1" stop-color="#dcf1f1"/></linearGradient></defs><g transform="translate(690.897 362.32)"><path class="a" d="M2553.48,663.12a157.96,157.96,0,0,0-155.29-157.91C1919.45,497,1754.37,127.02,1210.37,127.02c-82.41,0-593.61,80.35-965.99-108.1C141.24-33.28,18.79,40.34,15.79,155.9,6.52,512.1,84.4,1048.6,680.17,820.95c459.74-175.66,979.73,632.38,1814.15-34.6A157.707,157.707,0,0,0,2553.48,663.12Z" transform="translate(-705.999 253.639) rotate(-14)"/><path class="b" d="M2538.375,391.653a157.96,157.96,0,0,1-155.29,157.91c-478.74,8.21-643.82,378.19-1187.82,378.19-82.41,0-593.61-80.35-965.99,108.1-103.14,52.2-225.59-21.42-228.59-136.98-9.27-356.2,68.61-892.7,664.38-665.05,459.74,175.66,979.73-632.38,1814.15,34.6A157.707,157.707,0,0,1,2538.375,391.653Z" transform="translate(2116.42 835.91) rotate(178)"/></g></svg>