<svg xmlns="http://www.w3.org/2000/svg" xmlns:xlink="http://www.w3.org/1999/xlink" width="2749.082" height="1477.723" viewBox="0 0 2749.082 1477.723"><defs><style>.a{fill:url(#a);}.b{fill:#03045e;}</style><linearGradient id="a" x1="0.194" y1="-0.132" x2="-0.695" y2="0.417" gradientUnits="objectBoundingBox"><stop offset="0" stop-color="#caf0f8"/><stop offset="0.201" stop-color="#c0e7eb"/><stop offset="1" stop-color="#dcf1f1"/></linearGradient></defs><g transform="translate(35.574 102.612)"><path class="a" d="M2538.375,391.653a157.96,157.96,0,0,1-155.29,157.91c-478.74,8.21-643.82,378.19-1187.82,378.19-82.41,0-593.61-80.35-965.99,108.1-103.14,52.2-225.59-21.42-228.59-136.98-9.27-356.2,68.61-892.7,664.38-665.05,459.74,175.66,979.73-632.38,1814.15,34.6A157.707,157.707,0,0,1,2538.375,391.653Z" transform="translate(2621.739 1291.33) rotate(-175)"/><path class="b" d="M2538.375,661.283a157.96,157.96,0,0,0-155.29-157.91c-478.74-8.21-643.82-378.19-1187.82-378.19-82.41,0-593.61,80.35-965.99-108.1C126.135-35.118,3.685,38.5.685,154.062c-9.27,356.2,68.61,892.7,664.38,665.05,459.74-175.66,979.73,632.38,1814.15-34.6A157.707,157.707,0,0,0,2538.375,661.283Z" transform="matrix(0.985, -0.174, 0.174, 0.985, -35.574, 338.172)"/></g></svg>