<svg xmlns="http://www.w3.org/2000/svg" width="59.996" height="60" viewBox="0 0 59.996 60"><defs><style>.a{fill:#fff;}</style></defs><g transform="translate(-0.001)"><path class="a" d="M59.87,46.489q-.255-.767-3.238-2.258-.808-.47-2.3-1.279-1.358-.736-2.706-1.492-1.15-.643-2.28-1.32-.17-.128-1.065-.746a11.977,11.977,0,0,0-1.513-.916,2.79,2.79,0,0,0-1.215-.3,3.536,3.536,0,0,0-2.13,1.214,20.747,20.747,0,0,0-2.343,2.643,25.69,25.69,0,0,1-2.258,2.642,3.248,3.248,0,0,1-1.96,1.215,2.9,2.9,0,0,1-.959-.213c-.383-.142-.674-.264-.874-.362s-.538-.3-1.022-.6-.753-.462-.81-.49a44.78,44.78,0,0,1-10.014-7.414A44.757,44.757,0,0,1,15.768,26.8q-.043-.085-.49-.81t-.6-1.023a9.235,9.235,0,0,1-.362-.873,2.883,2.883,0,0,1-.213-.959,3.247,3.247,0,0,1,1.215-1.96,25.664,25.664,0,0,1,2.642-2.258A20.739,20.739,0,0,0,20.6,16.576a3.537,3.537,0,0,0,1.214-2.13,2.782,2.782,0,0,0-.3-1.214,11.846,11.846,0,0,0-.916-1.513q-.618-.895-.746-1.066-.676-1.13-1.321-2.279-.756-1.348-1.492-2.706-.809-1.491-1.278-2.3Q14.277.384,13.51.128A2.386,2.386,0,0,0,12.615,0a14.039,14.039,0,0,0-3,.426,16.875,16.875,0,0,0-2.919.895q-2.131.894-4.517,5.2A16.521,16.521,0,0,0,0,14.445a16.456,16.456,0,0,0,.149,2.237,18.385,18.385,0,0,0,.533,2.45q.383,1.363.617,2.024t.873,2.365q.639,1.7.767,2.088a38.6,38.6,0,0,0,3.537,7.457A63.183,63.183,0,0,0,15.66,44.338a63.212,63.212,0,0,0,11.271,9.183,38.657,38.657,0,0,0,7.457,3.537q.384.127,2.087.767t2.365.873q.66.235,2.024.619a18.548,18.548,0,0,0,2.451.534,15.806,15.806,0,0,0,10.163-2.025q4.3-2.386,5.2-4.518a16.783,16.783,0,0,0,.895-2.919,14.008,14.008,0,0,0,.426-3,2.376,2.376,0,0,0-.128-.9Z"/></g></svg>