<svg xmlns="http://www.w3.org/2000/svg" width="55.002" height="60" viewBox="0 0 55.002 60"><defs><style>.a{fill:#fff;}</style></defs><g transform="translate(-2.499)"><path class="a" d="M30,30a14.452,14.452,0,0,0,10.606-4.395A14.452,14.452,0,0,0,45,15,14.454,14.454,0,0,0,40.606,4.394,14.455,14.455,0,0,0,30,0,14.453,14.453,0,0,0,19.394,4.394,14.453,14.453,0,0,0,15,15a14.451,14.451,0,0,0,4.395,10.606A14.454,14.454,0,0,0,30,30Z"/><path class="a" d="M57.363,45.84a39.994,39.994,0,0,0-.547-4.258,33.121,33.121,0,0,0-1.036-4.238,20.1,20.1,0,0,0-1.68-3.809,13.719,13.719,0,0,0-2.422-3.164,10.2,10.2,0,0,0-3.339-2.089,11.742,11.742,0,0,0-4.356-.781,4.775,4.775,0,0,0-1.641.84q-1.45.945-2.91,1.876a18.477,18.477,0,0,1-4.219,1.874,16.606,16.606,0,0,1-10.43,0,18.473,18.473,0,0,1-4.219-1.874q-1.459-.931-2.91-1.875a4.775,4.775,0,0,0-1.641-.84,11.735,11.735,0,0,0-4.355.781,10.2,10.2,0,0,0-3.34,2.089A13.737,13.737,0,0,0,5.9,33.535a20.132,20.132,0,0,0-1.679,3.809,33.124,33.124,0,0,0-1.035,4.238,39.756,39.756,0,0,0-.547,4.258Q2.5,47.859,2.5,49.884a9.737,9.737,0,0,0,2.852,7.4A10.538,10.538,0,0,0,12.93,60H47.071a10.538,10.538,0,0,0,7.578-2.714,9.733,9.733,0,0,0,2.852-7.4Q57.5,47.813,57.363,45.84Z"/></g></svg>